<mxfile host="app.diagrams.net" agent="Mozilla/5.0 (X11; Ubuntu; Linux x86_64; rv:130.0) Gecko/20100101 Firefox/130.0" version="24.7.12">
  <diagram name="Page-1" id="uqu62y5qMoyovhxPFtwD">
    <mxGraphModel dx="2426" dy="747" grid="1" gridSize="10" guides="1" tooltips="1" connect="1" arrows="1" fold="1" page="1" pageScale="1" pageWidth="827" pageHeight="1169" math="0" shadow="0">
      <root>
        <mxCell id="0" />
        <mxCell id="1" parent="0" />
        <mxCell id="c0tso06Pk5eB-X-j4fhn-2" value="Curing data" style="rounded=1;whiteSpace=wrap;html=1;" parent="1" vertex="1">
          <mxGeometry x="160" y="230" width="120" height="60" as="geometry" />
        </mxCell>
        <mxCell id="c0tso06Pk5eB-X-j4fhn-3" value="" style="endArrow=none;html=1;rounded=0;fillColor=#d80073;strokeColor=#A50040;" parent="1" edge="1">
          <mxGeometry width="50" height="50" relative="1" as="geometry">
            <mxPoint x="160" y="360" as="sourcePoint" />
            <mxPoint x="210" y="290" as="targetPoint" />
          </mxGeometry>
        </mxCell>
        <mxCell id="c0tso06Pk5eB-X-j4fhn-4" value="" style="endArrow=none;html=1;rounded=0;fillColor=#d80073;strokeColor=#A50040;" parent="1" edge="1">
          <mxGeometry width="50" height="50" relative="1" as="geometry">
            <mxPoint x="210" y="290" as="sourcePoint" />
            <mxPoint x="280" y="360" as="targetPoint" />
          </mxGeometry>
        </mxCell>
        <mxCell id="c0tso06Pk5eB-X-j4fhn-5" value="" style="shape=singleArrow;whiteSpace=wrap;html=1;" parent="1" vertex="1">
          <mxGeometry x="60" y="230" width="100" height="60" as="geometry" />
        </mxCell>
        <mxCell id="c0tso06Pk5eB-X-j4fhn-6" value="" style="shape=singleArrow;whiteSpace=wrap;html=1;" parent="1" vertex="1">
          <mxGeometry x="280" y="230" width="100" height="60" as="geometry" />
        </mxCell>
        <mxCell id="c0tso06Pk5eB-X-j4fhn-7" value="" style="rounded=1;whiteSpace=wrap;html=1;" parent="1" vertex="1">
          <mxGeometry x="-160" y="360" width="700" height="370" as="geometry" />
        </mxCell>
        <mxCell id="c0tso06Pk5eB-X-j4fhn-11" value="Labels" style="swimlane;fontStyle=0;childLayout=stackLayout;horizontal=1;startSize=30;horizontalStack=0;resizeParent=1;resizeParentMax=0;resizeLast=0;collapsible=1;marginBottom=0;whiteSpace=wrap;html=1;" parent="1" vertex="1">
          <mxGeometry x="380" y="195" width="180" height="160" as="geometry" />
        </mxCell>
        <mxCell id="c0tso06Pk5eB-X-j4fhn-12" value="malwar type 1" style="text;strokeColor=none;fillColor=none;align=left;verticalAlign=middle;spacingLeft=4;spacingRight=4;overflow=hidden;points=[[0,0.5],[1,0.5]];portConstraint=eastwest;rotatable=0;whiteSpace=wrap;html=1;" parent="c0tso06Pk5eB-X-j4fhn-11" vertex="1">
          <mxGeometry y="30" width="180" height="30" as="geometry" />
        </mxCell>
        <mxCell id="c0tso06Pk5eB-X-j4fhn-13" value="malwar type 1" style="text;strokeColor=none;fillColor=none;align=left;verticalAlign=middle;spacingLeft=4;spacingRight=4;overflow=hidden;points=[[0,0.5],[1,0.5]];portConstraint=eastwest;rotatable=0;whiteSpace=wrap;html=1;" parent="c0tso06Pk5eB-X-j4fhn-11" vertex="1">
          <mxGeometry y="60" width="180" height="30" as="geometry" />
        </mxCell>
        <mxCell id="c0tso06Pk5eB-X-j4fhn-16" value="malwar type 1" style="text;strokeColor=none;fillColor=none;align=left;verticalAlign=middle;spacingLeft=4;spacingRight=4;overflow=hidden;points=[[0,0.5],[1,0.5]];portConstraint=eastwest;rotatable=0;whiteSpace=wrap;html=1;" parent="c0tso06Pk5eB-X-j4fhn-11" vertex="1">
          <mxGeometry y="90" width="180" height="30" as="geometry" />
        </mxCell>
        <mxCell id="c0tso06Pk5eB-X-j4fhn-14" value="malwar type 1" style="text;strokeColor=none;fillColor=none;align=left;verticalAlign=middle;spacingLeft=4;spacingRight=4;overflow=hidden;points=[[0,0.5],[1,0.5]];portConstraint=eastwest;rotatable=0;whiteSpace=wrap;html=1;" parent="c0tso06Pk5eB-X-j4fhn-11" vertex="1">
          <mxGeometry y="120" width="180" height="40" as="geometry" />
        </mxCell>
        <mxCell id="c0tso06Pk5eB-X-j4fhn-18" value="" style="shape=singleArrow;whiteSpace=wrap;html=1;" parent="1" vertex="1">
          <mxGeometry x="560" y="230" width="100" height="60" as="geometry" />
        </mxCell>
        <mxCell id="c0tso06Pk5eB-X-j4fhn-22" value="" style="ellipse;shape=cloud;whiteSpace=wrap;html=1;" parent="1" vertex="1">
          <mxGeometry x="640" y="170" width="170" height="150" as="geometry" />
        </mxCell>
        <mxCell id="c0tso06Pk5eB-X-j4fhn-23" value="LLM model" style="text;strokeColor=none;align=center;fillColor=none;html=1;verticalAlign=middle;whiteSpace=wrap;rounded=0;" parent="1" vertex="1">
          <mxGeometry x="690" y="220" width="90" height="50" as="geometry" />
        </mxCell>
        <mxCell id="c0tso06Pk5eB-X-j4fhn-24" value="Training and validation" style="shape=cylinder3;whiteSpace=wrap;html=1;boundedLbl=1;backgroundOutline=1;size=15;fillColor=#d80073;fontColor=#ffffff;strokeColor=#A50040;" parent="1" vertex="1">
          <mxGeometry x="890" y="205" width="60" height="80" as="geometry" />
        </mxCell>
        <mxCell id="c0tso06Pk5eB-X-j4fhn-25" value="" style="shape=doubleArrow;whiteSpace=wrap;html=1;" parent="1" vertex="1">
          <mxGeometry x="790" y="220" width="100" height="60" as="geometry" />
        </mxCell>
        <mxCell id="c0tso06Pk5eB-X-j4fhn-26" value="" style="shape=doubleArrow;direction=south;whiteSpace=wrap;html=1;" parent="1" vertex="1">
          <mxGeometry x="705" y="80" width="60" height="100" as="geometry" />
        </mxCell>
        <mxCell id="c0tso06Pk5eB-X-j4fhn-27" value="Me" style="text;strokeColor=#b85450;align=center;fillColor=#f8cecc;html=1;verticalAlign=middle;whiteSpace=wrap;rounded=0;" parent="1" vertex="1">
          <mxGeometry x="705" y="30" width="60" height="30" as="geometry" />
        </mxCell>
        <mxCell id="c0tso06Pk5eB-X-j4fhn-29" value="Training correction" style="text;strokeColor=#82b366;align=center;fillColor=#d5e8d4;html=1;verticalAlign=middle;whiteSpace=wrap;rounded=0;" parent="1" vertex="1">
          <mxGeometry x="755" y="115" width="60" height="30" as="geometry" />
        </mxCell>
        <mxCell id="c0tso06Pk5eB-X-j4fhn-30" value="FIneTuning" style="text;strokeColor=#d79b00;align=center;fillColor=#ffe6cc;html=1;verticalAlign=middle;whiteSpace=wrap;rounded=0;" parent="1" vertex="1">
          <mxGeometry x="815" y="280" width="60" height="30" as="geometry" />
        </mxCell>
        <mxCell id="c0tso06Pk5eB-X-j4fhn-31" value="" style="shape=switch;whiteSpace=wrap;html=1;" parent="1" vertex="1">
          <mxGeometry x="-20" y="230" width="60" height="60" as="geometry" />
        </mxCell>
        <mxCell id="c0tso06Pk5eB-X-j4fhn-32" value="Raw Data" style="text;strokeColor=#6c8ebf;align=center;fillColor=#dae8fc;html=1;verticalAlign=middle;whiteSpace=wrap;rounded=0;" parent="1" vertex="1">
          <mxGeometry x="-30" y="180" width="60" height="30" as="geometry" />
        </mxCell>
        <mxCell id="c0tso06Pk5eB-X-j4fhn-33" value="Feeding the raw data" style="text;strokeColor=#005700;align=center;fillColor=#008a00;html=1;verticalAlign=middle;whiteSpace=wrap;rounded=0;fontColor=#ffffff;" parent="1" vertex="1">
          <mxGeometry x="70" y="150" width="60" height="85" as="geometry" />
        </mxCell>
        <mxCell id="c0tso06Pk5eB-X-j4fhn-35" value="Labelilng the data" style="text;strokeColor=#005700;align=center;fillColor=#008a00;html=1;verticalAlign=middle;whiteSpace=wrap;rounded=0;fontColor=#ffffff;" parent="1" vertex="1">
          <mxGeometry x="300" y="140" width="60" height="80" as="geometry" />
        </mxCell>
        <mxCell id="c0tso06Pk5eB-X-j4fhn-36" value="Feeding the labeled data" style="text;strokeColor=#005700;align=center;fillColor=#008a00;html=1;verticalAlign=middle;whiteSpace=wrap;rounded=0;fontColor=#ffffff;" parent="1" vertex="1">
          <mxGeometry x="580" y="120" width="60" height="110" as="geometry" />
        </mxCell>
        <mxCell id="c0tso06Pk5eB-X-j4fhn-37" value="" style="shape=actor;whiteSpace=wrap;html=1;" parent="1" vertex="1">
          <mxGeometry x="775" y="15" width="40" height="60" as="geometry" />
        </mxCell>
        <mxCell id="c0tso06Pk5eB-X-j4fhn-52" style="edgeStyle=orthogonalEdgeStyle;rounded=0;orthogonalLoop=1;jettySize=auto;html=1;entryX=0;entryY=0.5;entryDx=0;entryDy=0;" parent="1" source="c0tso06Pk5eB-X-j4fhn-40" target="c0tso06Pk5eB-X-j4fhn-44" edge="1">
          <mxGeometry relative="1" as="geometry" />
        </mxCell>
        <mxCell id="c0tso06Pk5eB-X-j4fhn-40" value="Extractor&lt;span style=&quot;white-space: pre;&quot;&gt;&#x9;&lt;/span&gt;" style="shape=delay;whiteSpace=wrap;html=1;" parent="1" vertex="1">
          <mxGeometry x="-100" y="510" width="90" height="40" as="geometry" />
        </mxCell>
        <mxCell id="c0tso06Pk5eB-X-j4fhn-54" style="edgeStyle=orthogonalEdgeStyle;rounded=0;orthogonalLoop=1;jettySize=auto;html=1;exitX=1;exitY=0.5;exitDx=0;exitDy=0;entryX=0.75;entryY=1;entryDx=0;entryDy=0;" parent="1" source="c0tso06Pk5eB-X-j4fhn-41" target="c0tso06Pk5eB-X-j4fhn-43" edge="1">
          <mxGeometry relative="1" as="geometry">
            <mxPoint x="260" y="300" as="targetPoint" />
          </mxGeometry>
        </mxCell>
        <mxCell id="c0tso06Pk5eB-X-j4fhn-41" value="Decomp Script" style="shape=delay;whiteSpace=wrap;html=1;" parent="1" vertex="1">
          <mxGeometry x="360" y="620" width="100" height="40" as="geometry" />
        </mxCell>
        <mxCell id="c0tso06Pk5eB-X-j4fhn-51" style="edgeStyle=orthogonalEdgeStyle;rounded=0;orthogonalLoop=1;jettySize=auto;html=1;exitX=1;exitY=0.5;exitDx=0;exitDy=0;entryX=0;entryY=0.5;entryDx=0;entryDy=0;" parent="1" source="c0tso06Pk5eB-X-j4fhn-42" target="c0tso06Pk5eB-X-j4fhn-41" edge="1">
          <mxGeometry relative="1" as="geometry" />
        </mxCell>
        <mxCell id="c0tso06Pk5eB-X-j4fhn-42" value="Ghidra analyzer" style="shape=delay;whiteSpace=wrap;html=1;" parent="1" vertex="1">
          <mxGeometry x="150" y="620" width="110" height="40" as="geometry" />
        </mxCell>
        <mxCell id="c0tso06Pk5eB-X-j4fhn-58" style="edgeStyle=orthogonalEdgeStyle;rounded=0;orthogonalLoop=1;jettySize=auto;html=1;exitX=0.5;exitY=1;exitDx=0;exitDy=0;entryX=0;entryY=0.5;entryDx=0;entryDy=0;" parent="1" source="c0tso06Pk5eB-X-j4fhn-43" target="c0tso06Pk5eB-X-j4fhn-42" edge="1">
          <mxGeometry relative="1" as="geometry" />
        </mxCell>
        <mxCell id="c0tso06Pk5eB-X-j4fhn-59" style="edgeStyle=orthogonalEdgeStyle;rounded=0;orthogonalLoop=1;jettySize=auto;html=1;exitX=1;exitY=0.5;exitDx=0;exitDy=0;" parent="1" source="c0tso06Pk5eB-X-j4fhn-43" edge="1">
          <mxGeometry relative="1" as="geometry">
            <mxPoint x="250" y="300" as="targetPoint" />
          </mxGeometry>
        </mxCell>
        <mxCell id="c0tso06Pk5eB-X-j4fhn-43" value="Automation" style="shape=delay;whiteSpace=wrap;html=1;" parent="1" vertex="1">
          <mxGeometry x="240" y="505" width="100" height="50" as="geometry" />
        </mxCell>
        <mxCell id="c0tso06Pk5eB-X-j4fhn-57" style="edgeStyle=orthogonalEdgeStyle;rounded=0;orthogonalLoop=1;jettySize=auto;html=1;entryX=0;entryY=0.5;entryDx=0;entryDy=0;" parent="1" source="c0tso06Pk5eB-X-j4fhn-44" target="c0tso06Pk5eB-X-j4fhn-43" edge="1">
          <mxGeometry relative="1" as="geometry" />
        </mxCell>
        <mxCell id="c0tso06Pk5eB-X-j4fhn-44" value="Regrouper" style="shape=delay;whiteSpace=wrap;html=1;" parent="1" vertex="1">
          <mxGeometry x="70" y="510" width="80" height="40" as="geometry" />
        </mxCell>
        <mxCell id="c0tso06Pk5eB-X-j4fhn-56" style="edgeStyle=orthogonalEdgeStyle;rounded=0;orthogonalLoop=1;jettySize=auto;html=1;exitX=0.25;exitY=1;exitDx=0;exitDy=0;entryX=0;entryY=0.5;entryDx=0;entryDy=0;" parent="1" source="c0tso06Pk5eB-X-j4fhn-2" target="c0tso06Pk5eB-X-j4fhn-40" edge="1">
          <mxGeometry relative="1" as="geometry" />
        </mxCell>
        <mxCell id="c0tso06Pk5eB-X-j4fhn-60" value="" style="ellipse;whiteSpace=wrap;html=1;strokeWidth=2;fillWeight=2;hachureGap=8;fillColor=#990000;fillStyle=dots;sketch=1;" parent="1" vertex="1">
          <mxGeometry x="-160" y="230" width="120" height="60" as="geometry" />
        </mxCell>
        <mxCell id="c0tso06Pk5eB-X-j4fhn-61" value="" style="shape=image;html=1;verticalLabelPosition=bottom;verticalAlign=top;imageAspect=0;image=img/clipart/Gear_128x128.png" parent="1" vertex="1">
          <mxGeometry x="820" y="320" width="50" height="60" as="geometry" />
        </mxCell>
        <mxCell id="c0tso06Pk5eB-X-j4fhn-63" value="" style="rhombus;whiteSpace=wrap;html=1;strokeWidth=2;fillWeight=-1;hachureGap=8;fillStyle=cross-hatch;fillColor=#006600;sketch=1;" parent="1" vertex="1">
          <mxGeometry x="300" y="275" width="50" height="55" as="geometry" />
        </mxCell>
        <mxCell id="c0tso06Pk5eB-X-j4fhn-74" value="" style="html=1;shadow=0;dashed=0;align=center;verticalAlign=middle;shape=mxgraph.arrows2.jumpInArrow;dy=15;dx=38;arrowHead=55;direction=north;" parent="1" vertex="1">
          <mxGeometry x="-235" y="160" width="100" height="100" as="geometry" />
        </mxCell>
        <mxCell id="c0tso06Pk5eB-X-j4fhn-75" value="bin,exe,dll,obj,o files extensions" style="text;strokeColor=#C73500;align=center;fillColor=#fa6800;html=1;verticalAlign=middle;whiteSpace=wrap;rounded=0;fontColor=#000000;" parent="1" vertex="1">
          <mxGeometry x="-260" y="60" width="150" height="100" as="geometry" />
        </mxCell>
        <mxCell id="c0tso06Pk5eB-X-j4fhn-76" style="edgeStyle=orthogonalEdgeStyle;rounded=0;orthogonalLoop=1;jettySize=auto;html=1;exitX=1;exitY=0.5;exitDx=0;exitDy=0;entryX=0.25;entryY=0.5;entryDx=0;entryDy=0;entryPerimeter=0;" parent="1" source="c0tso06Pk5eB-X-j4fhn-60" target="c0tso06Pk5eB-X-j4fhn-31" edge="1">
          <mxGeometry relative="1" as="geometry" />
        </mxCell>
        <mxCell id="c0tso06Pk5eB-X-j4fhn-77" style="edgeStyle=orthogonalEdgeStyle;rounded=0;orthogonalLoop=1;jettySize=auto;html=1;exitX=0.75;exitY=0.5;exitDx=0;exitDy=0;exitPerimeter=0;entryX=0;entryY=0.5;entryDx=0;entryDy=0;entryPerimeter=0;" parent="1" source="c0tso06Pk5eB-X-j4fhn-31" target="c0tso06Pk5eB-X-j4fhn-5" edge="1">
          <mxGeometry relative="1" as="geometry" />
        </mxCell>
        <mxCell id="c0tso06Pk5eB-X-j4fhn-78" value="" style="html=1;shadow=0;dashed=0;align=center;verticalAlign=middle;shape=mxgraph.arrows2.stylisedArrow;dy=0.6;dx=40;notch=15;feather=0.4;direction=south;fillColor=#e6d0de;gradientColor=#d5739d;strokeColor=#996185;" parent="1" vertex="1">
          <mxGeometry x="640" y="330" width="155" height="330" as="geometry" />
        </mxCell>
        <mxCell id="c0tso06Pk5eB-X-j4fhn-79" value="" style="verticalLabelPosition=bottom;verticalAlign=top;html=1;shape=mxgraph.basic.6_point_star;fillColor=#f8cecc;gradientColor=#ea6b66;strokeColor=#b85450;" parent="1" vertex="1">
          <mxGeometry x="552.5" y="650" width="345" height="300" as="geometry" />
        </mxCell>
        <mxCell id="c0tso06Pk5eB-X-j4fhn-81" style="edgeStyle=orthogonalEdgeStyle;rounded=0;orthogonalLoop=1;jettySize=auto;html=1;exitX=0.55;exitY=0.95;exitDx=0;exitDy=0;exitPerimeter=0;entryX=0;entryY=0.5;entryDx=15;entryDy=0;entryPerimeter=0;" parent="1" source="c0tso06Pk5eB-X-j4fhn-22" target="c0tso06Pk5eB-X-j4fhn-78" edge="1">
          <mxGeometry relative="1" as="geometry" />
        </mxCell>
        <mxCell id="c0tso06Pk5eB-X-j4fhn-83" value="&lt;font style=&quot;font-size: 40px;&quot;&gt;HawkSec&lt;/font&gt;" style="text;strokeColor=none;align=center;fillColor=none;html=1;verticalAlign=middle;whiteSpace=wrap;rounded=0;fontColor=#00FF00;labelBackgroundColor=none;textShadow=1;labelBorderColor=none;" parent="1" vertex="1">
          <mxGeometry x="615" y="765" width="220" height="70" as="geometry" />
        </mxCell>
        <mxCell id="c0tso06Pk5eB-X-j4fhn-84" value="&lt;font style=&quot;font-size: 21px;&quot;&gt;Cloud Hosted tool&lt;br&gt;&lt;/font&gt;" style="whiteSpace=wrap;html=1;shape=mxgraph.basic.cloud_callout" parent="1" vertex="1">
          <mxGeometry x="835" y="525" width="235" height="240" as="geometry" />
        </mxCell>
      </root>
    </mxGraphModel>
  </diagram>
</mxfile>
